<svg width="118" height="118" viewBox="0 0 118 118" fill="none" xmlns="http://www.w3.org/2000/svg">
<path d="M78.5099 63.3873C81.0883 52.6118 74.4432 41.7864 63.6677 39.208C52.8922 36.6297 42.0667 43.2747 39.4884 54.0503C36.91 64.8258 43.5551 75.6512 54.3306 78.2296C65.1061 80.8079 75.9316 74.1628 78.5099 63.3873Z" fill="#EC6E4C"/>
<path d="M59.0065 33.2189C57.6104 33.2189 56.4761 32.0846 56.4761 30.6885V19.694C56.4761 18.2979 57.6104 17.1636 59.0065 17.1636C60.4027 17.1636 61.537 18.2979 61.537 19.694V30.6952C61.5303 32.0913 60.4027 33.2189 59.0065 33.2189Z" fill="#EC6E4C"/>
<path d="M59.0065 100.836C57.6104 100.836 56.4761 99.7019 56.4761 98.3058V87.3046C56.4761 85.9085 57.6104 84.7742 59.0065 84.7742C60.4027 84.7742 61.537 85.9085 61.537 87.3046V98.3058C61.5303 99.7019 60.4027 100.836 59.0065 100.836Z" fill="#EC6E4C"/>
<path d="M98.3138 61.5311H87.3127C85.9166 61.5311 84.7822 60.3968 84.7822 59.0007C84.7822 57.6046 85.9166 56.4702 87.3127 56.4702H98.3138C99.71 56.4702 100.844 57.6046 100.844 59.0007C100.844 60.3968 99.71 61.5311 98.3138 61.5311Z" fill="#EC6E4C"/>
<path d="M19.694 61.5311H30.6952C32.0913 61.5311 33.2257 60.3968 33.2257 59.0007C33.2257 57.6046 32.0913 56.4702 30.6952 56.4702H19.694C18.2979 56.4702 17.1636 57.6046 17.1636 59.0007C17.1703 60.3968 18.2979 61.5311 19.694 61.5311Z" fill="#EC6E4C"/>
<path d="M38.9917 41.5147C38.3473 41.5147 37.6962 41.2663 37.2062 40.7763L29.4202 32.9903C28.4335 32.0036 28.4335 30.3994 29.4202 29.4127C30.4069 28.4261 32.0111 28.4261 32.9977 29.4127L40.7771 37.1988C41.7638 38.1855 41.7638 39.7897 40.7771 40.7763C40.2804 41.2663 39.636 41.5147 38.9917 41.5147Z" fill="#EC6E4C"/>
<path d="M86.8027 89.3258C86.1583 89.3258 85.5072 89.0775 85.0173 88.5875L77.2312 80.8015C76.2445 79.8148 76.2445 78.2106 77.2312 77.2239C78.2179 76.2372 79.8221 76.2372 80.8088 77.2239L88.5881 85.0032C89.5748 85.9899 89.5748 87.5941 88.5881 88.5808C88.0914 89.0775 87.4471 89.3258 86.8027 89.3258Z" fill="#EC6E4C"/>
<path d="M31.2115 89.325C30.5671 89.325 29.916 89.0766 29.426 88.5866C28.4394 87.6 28.4394 85.9958 29.426 85.0091L37.2054 77.2298C38.1921 76.2431 39.7963 76.2431 40.7829 77.2298C41.7696 78.2164 41.7696 79.8206 40.7829 80.8073L33.0036 88.5866C32.5002 89.0766 31.8558 89.325 31.2115 89.325Z" fill="#EC6E4C"/>
<path d="M79.0225 41.5152C78.3781 41.5152 77.7271 41.2668 77.2371 40.7768C76.2504 39.7902 76.2504 38.186 77.2371 37.1993L85.0164 29.4199C86.0031 28.4333 87.6073 28.4333 88.594 29.4199C89.5807 30.4066 89.5807 32.0108 88.594 32.9975L80.8146 40.7768C80.3179 41.2668 79.6669 41.5152 79.0225 41.5152Z" fill="#EC6E4C"/>
</svg>
