<svg width="118" height="118" viewBox="0 0 118 118" fill="none" xmlns="http://www.w3.org/2000/svg">
<path d="M57.064 68.7778C63.8997 60.856 63.0192 48.8927 55.0974 42.057C47.1756 35.2213 35.2123 36.1017 28.3766 44.0235C21.5409 51.9453 22.4214 63.9086 30.3432 70.7443C38.265 77.58 50.2283 76.6995 57.064 68.7778Z" fill="#EC6E4C"/>
<path d="M42.727 32.3251C41.4086 32.3251 40.3374 31.2539 40.3374 29.9355V19.5532C40.3374 18.2348 41.4086 17.1636 42.727 17.1636C44.0454 17.1636 45.1166 18.2348 45.1166 19.5532V29.9418C45.1166 31.2602 44.0454 32.3251 42.727 32.3251Z" fill="#EC6E4C"/>
<path d="M15.9965 59.0604H5.60784C4.28945 59.0604 3.21826 57.9892 3.21826 56.6708C3.21826 55.3524 4.28945 54.2812 5.60784 54.2812H15.9965C17.3149 54.2812 18.3861 55.3524 18.3861 56.6708C18.3798 57.9892 17.3149 59.0604 15.9965 59.0604Z" fill="#EC6E4C"/>
<path d="M23.8258 40.159C23.2173 40.159 22.6024 39.9245 22.1397 39.4618L14.7935 32.1155C13.8618 31.1838 13.8618 29.6689 14.7935 28.7371C15.7253 27.8054 17.2402 27.8054 18.1719 28.7371L25.5181 36.0834C26.4499 37.0151 26.4499 38.53 25.5181 39.4618C25.0491 39.9245 24.4343 40.159 23.8258 40.159Z" fill="#EC6E4C"/>
<path d="M16.4795 85.3074C15.8711 85.3074 15.2562 85.0729 14.7935 84.6102C13.8618 83.6784 13.8618 82.1636 14.7935 81.2318L22.1397 73.8856C23.0715 72.9538 24.5864 72.9538 25.5181 73.8856C26.4499 74.8173 26.4499 76.3322 25.5181 77.264L18.1719 84.6102C17.7029 85.0729 17.088 85.3074 16.4795 85.3074Z" fill="#EC6E4C"/>
<path d="M61.628 40.159C61.0195 40.159 60.4047 39.9245 59.942 39.4618C59.0102 38.53 59.0102 37.0151 59.942 36.0834L67.2882 28.7371C68.22 27.8054 69.7348 27.8054 70.6666 28.7371C71.5983 29.6689 71.5983 31.1838 70.6666 32.1155L63.3204 39.4618C62.8513 39.9245 62.2365 40.159 61.628 40.159Z" fill="#EC6E4C"/>
<path d="M95.468 63.7756C95.4617 63.7756 95.449 63.7756 95.4426 63.7756C95.449 63.6172 95.468 63.4587 95.468 63.3003C95.468 50.6107 85.1807 40.3235 72.4912 40.3235C59.8017 40.3235 49.5144 50.6107 49.5144 63.3003C49.5144 63.3129 49.5144 63.3319 49.5144 63.3446C39.5568 63.8073 31.6211 72.0029 31.6211 82.0683C31.6211 92.438 40.0258 100.836 50.3891 100.836H95.468C105.705 100.836 114.002 92.5394 114.002 82.3028C114.002 72.0726 105.705 63.7756 95.468 63.7756Z" fill="#F2F2F1"/>
</svg>
