<svg width="118" height="118" viewBox="0 0 118 118" fill="none" xmlns="http://www.w3.org/2000/svg">
<path d="M81.7885 41.2956C81.782 41.2956 81.7689 41.2956 81.7624 41.2956C81.7689 41.1325 81.7885 40.9694 81.7885 40.8064C81.7885 27.749 71.2031 17.1636 58.1457 17.1636C45.0884 17.1636 34.5029 27.749 34.5029 40.8064C34.5029 40.8194 34.5029 40.839 34.5029 40.852C24.2566 41.3282 16.0908 49.7613 16.0908 60.1185C16.0908 70.7887 24.7392 79.4306 35.4029 79.4306H81.7885C92.3218 79.4306 100.859 70.8931 100.859 60.3598C100.859 49.833 92.3218 41.2956 81.7885 41.2956Z" fill="#F2F2F1"/>
<path d="M24.8822 100.836C24.4387 100.836 23.9887 100.718 23.5843 100.464C22.4364 99.7464 22.0842 98.2267 22.8017 97.0788L41.892 66.5356C42.6094 65.3812 44.1291 65.0355 45.277 65.7529C46.4249 66.4704 46.7771 67.99 46.0597 69.1379L26.9693 99.6812C26.4997 100.431 25.6975 100.836 24.8822 100.836Z" fill="#A1A5AA"/>
<path d="M64.4516 100.836C64.0081 100.836 63.558 100.712 63.1537 100.464C62.0058 99.7464 61.6536 98.2268 62.371 97.0789L75.898 75.4318C76.6154 74.2774 78.1351 73.9317 79.283 74.6492C80.4309 75.3666 80.7831 76.8863 80.0656 78.0342L66.5387 99.6812C66.0756 100.431 65.2734 100.836 64.4516 100.836Z" fill="#A1A5AA"/>
<path d="M43.9724 100.836C43.5354 100.836 43.0854 100.719 42.681 100.471C41.5266 99.7601 41.1679 98.247 41.8788 97.0925L68.6066 53.7985C69.3175 52.644 70.8306 52.2853 71.9851 52.9962C73.1395 53.7071 73.4982 55.2203 72.7873 56.3747L46.0595 99.6688C45.5964 100.425 44.7942 100.836 43.9724 100.836Z" fill="#A1A5AA"/>
</svg>
