<svg width="118" height="118" viewBox="0 0 118 118" fill="none" xmlns="http://www.w3.org/2000/svg">
<path d="M80.423 38.8238C80.4171 38.8238 80.4054 38.8238 80.3996 38.8238C80.4054 38.6774 80.423 38.5311 80.423 38.3847C80.423 26.6648 70.9218 17.1636 59.2019 17.1636C47.4819 17.1636 37.9807 26.6648 37.9807 38.3847C37.9807 38.3964 37.9807 38.414 37.9807 38.4257C28.7839 38.853 21.4546 46.4224 21.4546 55.7187C21.4546 65.2902 29.2171 73.0527 38.7886 73.0527H80.423C89.8774 73.0527 97.5404 65.3897 97.5404 55.9353C97.5404 46.4868 89.8774 38.8238 80.423 38.8238Z" fill="#F2F2F1"/>
<path d="M77.6178 67.8601H56.5254L67.2209 48.8518H56.5254L41.375 76.1378H57.7138L51.1748 100.836L77.6178 67.8601Z" fill="#EC6E4C"/>
</svg>
