<svg width="24" height="24" viewBox="0 0 24 24" fill="none" xmlns="http://www.w3.org/2000/svg">
<path d="M10.1995 3C9.05363 3.00016 7.92429 3.27379 6.90541 3.79813C5.88652 4.32248 5.00751 5.0824 4.34141 6.01474C3.67532 6.94708 3.24139 8.02492 3.07568 9.15867C2.90998 10.2924 3.01728 11.4493 3.38868 12.5333C3.76008 13.6172 4.38484 14.5969 5.21105 15.3909C6.03725 16.1848 7.04104 16.7701 8.13899 17.0982C9.23693 17.4262 10.3973 17.4875 11.5237 17.277C12.6501 17.0665 13.71 16.5901 14.6153 15.8876L19.4631 20.7367C19.6321 20.9055 19.8612 21.0002 20.1001 21C20.3389 20.9998 20.5679 20.9048 20.7367 20.7358C20.9055 20.5668 21.0002 20.3377 21 20.0989C20.9998 19.8601 20.9048 19.6311 20.7358 19.4623L15.888 14.6151C16.7143 13.5508 17.2255 12.2761 17.3632 10.9358C17.5009 9.59547 17.2598 8.24343 16.6672 7.03337C16.0745 5.82331 15.1542 4.80381 14.0109 4.09079C12.8675 3.37777 11.547 2.99985 10.1995 3V3ZM4.79911 10.1998C4.79911 8.76767 5.36809 7.3942 6.38086 6.38153C7.39364 5.36886 8.76726 4.79995 10.1995 4.79995C11.6318 4.79995 13.0054 5.36886 14.0182 6.38153C15.031 7.3942 15.6 8.76767 15.6 10.1998C15.6 11.6319 15.031 13.0054 14.0182 14.0181C13.0054 15.0307 11.6318 15.5996 10.1995 15.5996C8.76726 15.5996 7.39364 15.0307 6.38086 14.0181C5.36809 13.0054 4.79911 11.6319 4.79911 10.1998V10.1998Z" fill="white"/>
</svg>
