<svg width="16" height="16" viewBox="0 0 16 16" fill="none" xmlns="http://www.w3.org/2000/svg">
<rect x="13" y="2" width="10" height="0.999999" rx="0.5" transform="rotate(-180 13 2)" fill="white"/>
<path fill-rule="evenodd" clip-rule="evenodd" d="M7.61027 4.15804C7.8265 3.94732 8.1735 3.94732 8.38973 4.15804L12.8342 8.48929C13.0528 8.70238 13.0556 9.05061 12.8404 9.26709C12.6251 9.48356 12.2734 9.4863 12.0547 9.27321L8.55556 5.86317L8.55556 14.45C8.55556 14.7538 8.30682 15 8 15C7.69318 15 7.44444 14.7538 7.44444 14.45L7.44445 5.86317L3.94529 9.27321C3.72663 9.4863 3.37488 9.48356 3.15964 9.26708C2.94439 9.05061 2.94716 8.70238 3.16582 8.48929L7.61027 4.15804Z" fill="white"/>
</svg>
