<svg width="16" height="16" viewBox="0 0 16 16" fill="none" xmlns="http://www.w3.org/2000/svg">
<rect width="10" height="0.999999" rx="0.5" transform="matrix(-1 8.74228e-08 8.74228e-08 1 13 14)" fill="white"/>
<path fill-rule="evenodd" clip-rule="evenodd" d="M7.61027 11.842C7.8265 12.0527 8.1735 12.0527 8.38973 11.842L12.8342 7.51071C13.0528 7.29762 13.0556 6.94939 12.8404 6.73291C12.6251 6.51644 12.2734 6.5137 12.0547 6.72679L8.55556 10.1368L8.55556 1.55C8.55556 1.24624 8.30682 1 8 1C7.69318 1 7.44444 1.24624 7.44444 1.55L7.44445 10.1368L3.94529 6.72679C3.72663 6.5137 3.37488 6.51644 3.15964 6.73292C2.94439 6.94939 2.94716 7.29762 3.16582 7.51071L7.61027 11.842Z" fill="white"/>
</svg>
