<svg width="40" height="40" viewBox="0 0 40 40" fill="none" xmlns="http://www.w3.org/2000/svg">
<path d="M12.3061 27.024C12.4308 27.0656 12.5461 27.1312 12.6454 27.2172C12.7446 27.3033 12.8259 27.408 12.8846 27.5254C12.9433 27.6429 12.9783 27.7707 12.9875 27.9016C12.9967 28.0325 12.9799 28.164 12.9382 28.2885L11.9381 31.2847C11.9004 31.4137 11.8371 31.5337 11.7519 31.6377C11.6667 31.7416 11.5613 31.8273 11.4421 31.8897C11.323 31.952 11.1924 31.9897 11.0583 32.0005C10.9242 32.0113 10.7893 31.995 10.6617 31.9525C10.5341 31.91 10.4164 31.8423 10.3156 31.7533C10.2148 31.6643 10.133 31.5559 10.0751 31.4347C10.0172 31.3134 9.98447 31.1817 9.97876 31.0474C9.97304 30.9132 9.99451 30.7792 10.0419 30.6535L11.042 27.6573C11.1256 27.4059 11.3057 27.198 11.5428 27.0792C11.7798 26.9605 12.0544 26.9406 12.3061 27.024ZM18.3069 27.024C18.4316 27.0656 18.5469 27.1312 18.6461 27.2172C18.7454 27.3033 18.8267 27.408 18.8854 27.5254C18.9441 27.6429 18.979 27.7707 18.9882 27.9016C18.9974 28.0325 18.9807 28.164 18.939 28.2885L16.9387 34.2809C16.9011 34.4099 16.8377 34.5299 16.7525 34.6339C16.6673 34.7379 16.5619 34.8236 16.4428 34.8859C16.3236 34.9483 16.1931 34.986 16.059 34.9968C15.9249 35.0076 15.79 34.9912 15.6623 34.9487C15.5347 34.9063 15.417 34.8385 15.3162 34.7495C15.2154 34.6605 15.1336 34.5522 15.0757 34.4309C15.0179 34.3096 14.9851 34.1779 14.9794 34.0437C14.9737 33.9094 14.9951 33.7754 15.0425 33.6497L17.0427 27.6573C17.1263 27.4059 17.3064 27.198 17.5435 27.0792C17.7806 26.9605 18.0552 26.9406 18.3069 27.024V27.024ZM24.3077 27.024C24.4323 27.0656 24.5476 27.1312 24.6469 27.2172C24.7461 27.3033 24.8274 27.408 24.8861 27.5254C24.9448 27.6429 24.9798 27.7707 24.989 27.9016C24.9982 28.0325 24.9814 28.164 24.9397 28.2885L23.9396 31.2847C23.9019 31.4137 23.8386 31.5337 23.7534 31.6377C23.6682 31.7416 23.5628 31.8273 23.4437 31.8897C23.3245 31.952 23.194 31.9897 23.0599 32.0005C22.9258 32.0113 22.7909 31.995 22.6632 31.9525C22.5356 31.91 22.4179 31.8423 22.3171 31.7533C22.2163 31.6643 22.1345 31.5559 22.0766 31.4347C22.0188 31.3134 21.986 31.1817 21.9803 31.0474C21.9746 30.9132 21.996 30.7792 22.0434 30.6535L23.0435 27.6573C23.1271 27.4059 23.3072 27.198 23.5443 27.0792C23.7813 26.9605 24.0559 26.9406 24.3077 27.024ZM30.3084 27.024C30.4331 27.0656 30.5484 27.1312 30.6476 27.2172C30.7469 27.3033 30.8282 27.408 30.8869 27.5254C30.9456 27.6429 30.9805 27.7707 30.9897 27.9016C30.9989 28.0325 30.9822 28.164 30.9405 28.2885L28.9402 34.2809C28.9026 34.4099 28.8392 34.5299 28.754 34.6339C28.6688 34.7379 28.5635 34.8236 28.4443 34.8859C28.3251 34.9483 28.1946 34.986 28.0605 34.9968C27.9264 35.0076 27.7915 34.9912 27.6639 34.9487C27.5362 34.9063 27.4185 34.8385 27.3177 34.7495C27.2169 34.6605 27.1351 34.5522 27.0773 34.4309C27.0194 34.3096 26.9866 34.1779 26.9809 34.0437C26.9752 33.9094 26.9966 33.7754 27.044 33.6497L29.0443 27.6573C29.1278 27.4059 29.308 27.198 29.545 27.0792C29.7821 26.9605 30.0567 26.9406 30.3084 27.024ZM30.8025 13.0457C30.3871 10.9546 29.3127 9.05111 27.7365 7.61346C26.1602 6.17581 24.1648 5.27942 22.0419 5.05535C19.9189 4.83127 17.7799 5.29128 15.9375 6.36809C14.0951 7.44491 12.646 9.08207 11.8021 11.0402C10.8556 10.9313 9.8969 11.0165 8.98457 11.2905C8.07223 11.5645 7.2255 12.0216 6.49621 12.6337C5.76692 13.2459 5.17043 14.0003 4.74324 14.8506C4.31605 15.701 4.06717 16.6295 4.01182 17.5793C3.95648 18.5291 4.09584 19.4801 4.42137 20.3743C4.7469 21.2684 5.25175 22.0868 5.90501 22.7793C6.55828 23.4718 7.3462 24.0238 8.22055 24.4017C9.09491 24.7795 10.0373 24.9751 10.99 24.9766H29.9924C31.5148 24.9784 32.9809 24.4022 34.0939 23.3648C35.2068 22.3274 35.8833 20.9064 35.9862 19.3896C36.0892 17.8727 35.611 16.3735 34.6485 15.1956C33.686 14.0177 32.3112 13.2492 30.8025 13.0457V13.0457Z" fill="white"/>
</svg>
