<svg width="24" height="24" viewBox="0 0 24 24" fill="none" xmlns="http://www.w3.org/2000/svg">
<path d="M17 17C17 17.8523 16.7821 18.6904 16.3671 19.4348C15.9521 20.1792 15.3537 20.8052 14.6287 21.2533C13.9037 21.7013 13.0762 21.9566 12.2247 21.9949C11.3733 22.0333 10.5262 21.8533 9.76393 21.4721C9.00163 21.091 8.34941 20.5213 7.8692 19.8172C7.38899 19.1131 7.09674 18.2979 7.0202 17.449C6.94367 16.6002 7.08537 15.7459 7.43188 14.9672C7.77838 14.1885 8.31817 13.5114 9 13V5C9 4.20435 9.31607 3.44129 9.87868 2.87868C10.4413 2.31607 11.2044 2 12 2C12.7957 2 13.5587 2.31607 14.1213 2.87868C14.6839 3.44129 15 4.20435 15 5V13C16.214 13.912 17 15.364 17 17ZM13.799 14.599L13 13.999V5C13 4.73478 12.8946 4.48043 12.7071 4.29289C12.5196 4.10536 12.2652 4 12 4C11.7348 4 11.4804 4.10536 11.2929 4.29289C11.1054 4.48043 11 4.73478 11 5V13.999L10.201 14.599C9.69704 14.9766 9.3247 15.5033 9.13674 16.1044C8.94878 16.7054 8.95473 17.3504 9.15375 17.9478C9.35278 18.5453 9.73477 19.065 10.2456 19.4333C10.7565 19.8016 11.3702 19.9998 12 19.9998C12.6298 19.9998 13.2435 19.8016 13.7544 19.4333C14.2652 19.065 14.6472 18.5453 14.8462 17.9478C15.0453 17.3504 15.0512 16.7054 14.8633 16.1044C14.6753 15.5033 14.303 14.9766 13.799 14.599V14.599ZM12 19C11.4696 19 10.9609 18.7893 10.5858 18.4142C10.2107 18.0391 10 17.5304 10 17C10 16.4696 10.2107 15.9609 10.5858 15.5858C10.9609 15.2107 11.4696 15 12 15C12.5304 15 13.0391 15.2107 13.4142 15.5858C13.7893 15.9609 14 16.4696 14 17C14 17.5304 13.7893 18.0391 13.4142 18.4142C13.0391 18.7893 12.5304 19 12 19Z" fill="#FFC13D"/>
</svg>
