<svg width="24" height="24" viewBox="0 0 24 24" fill="none" xmlns="http://www.w3.org/2000/svg">
<path fill-rule="evenodd" clip-rule="evenodd" d="M12.75 3H11.25V6.75H12.75V3ZM18.8944 5.54475L16.2649 8.175L17.3254 9.2355L19.9549 6.606L18.8944 5.54475ZM18.75 12.75H22.5V14.25H18.75V12.75ZM5.25 12.75H1.5V14.25H5.25V12.75ZM4.04517 6.606L5.10567 5.54475L7.73517 8.175L6.67467 9.2355L4.04517 6.606ZM14 14C14 15.1046 13.1046 16 12 16C10.8954 16 10 15.1046 10 14C10 12.8954 10.8954 12 12 12C13.1046 12 14 12.8954 14 14ZM16 14C16 16.2091 14.2091 18 12 18C9.79086 18 8 16.2091 8 14C8 11.7909 9.79086 10 12 10C14.2091 10 16 11.7909 16 14Z" fill="#FFC13D"/>
</svg>
