<svg width="24" height="24" viewBox="0 0 24 24" fill="none" xmlns="http://www.w3.org/2000/svg">
<path fill-rule="evenodd" clip-rule="evenodd" d="M9.5 2C11.43 2 13 3.57 13 5.5C13 7.43 11.43 9 9.5 9H2V7H9.5C10.327 7 11 6.327 11 5.5C11 4.673 10.327 4 9.5 4C8.638 4 8.25 4.585 8.25 5H6.25C6.25 3.525 7.466 2 9.5 2ZM8 15H15.5C17.43 15 19 16.57 19 18.5C19 20.43 17.43 22 15.5 22C13.466 22 12.25 20.475 12.25 19H14.25C14.25 19.415 14.638 20 15.5 20C16.327 20 17 19.327 17 18.5C17 17.673 16.327 17 15.5 17H8V15ZM14 9C14 6.794 15.794 5 18 5C20.206 5 22 6.794 22 9C22 11.206 20.206 13 18 13H2V11H18C19.103 11 20 10.103 20 9C20 7.897 19.103 7 18 7C16.897 7 16 7.897 16 9H14ZM6 15H2V17H6V15Z" fill="#FFC13D"/>
</svg>
