<svg width="118" height="118" viewBox="0 0 118 118" fill="none" xmlns="http://www.w3.org/2000/svg">
<path d="M71.4342 41.4366C71.4276 41.4366 71.4145 41.4366 71.408 41.4366C71.4145 41.2727 71.4342 41.1087 71.4342 40.9447C71.4342 27.808 60.7832 17.1636 47.653 17.1636C34.5229 17.1636 23.8784 27.808 23.8784 40.9382C23.8784 40.9513 23.8784 40.971 23.8784 40.9841C13.575 41.4629 5.36377 49.943 5.36377 60.3579C5.36377 71.0811 14.0604 79.7777 24.7835 79.7777H71.4276C82.0196 79.7777 90.6047 71.1926 90.6047 60.6006C90.6047 50.0217 82.0196 41.4366 71.4342 41.4366Z" fill="#A1A5AA"/>
<path d="M93.1557 62.4886C93.1491 62.4886 93.136 62.4886 93.1294 62.4886C93.136 62.3247 93.1557 62.1607 93.1557 61.9968C93.1557 48.8666 82.5112 38.2222 69.3811 38.2222C56.2509 38.2222 45.6065 48.8666 45.6065 61.9968C45.6065 62.0099 45.6065 62.0296 45.6065 62.0427C35.3031 62.5214 27.0918 71.0016 27.0918 81.4165C27.0918 92.1397 35.7884 100.836 46.5116 100.836H93.1557C103.748 100.836 112.333 92.2512 112.333 81.6592C112.333 71.0737 103.748 62.4886 93.1557 62.4886Z" fill="#F2F2F1"/>
</svg>
