<svg width="118" height="118" viewBox="0 0 118 118" fill="none" xmlns="http://www.w3.org/2000/svg">
<path fill-rule="evenodd" clip-rule="evenodd" d="M57.3028 41.9017L49.4411 34.441C48.517 33.5639 48.5084 32.1502 49.4363 31.2696C50.3577 30.3951 51.8531 30.3964 52.7781 31.2742L57.3028 35.5682V22.2463C57.3028 21.0057 58.3502 20 59.6624 20C60.9656 20 62.022 20.9922 62.022 22.2463V35.6398L66.6222 31.2742C67.5464 30.3972 69.0361 30.389 69.964 31.2696C70.8855 32.1441 70.8842 33.5632 69.9592 34.441L62.022 41.9733V54.7202L73.0892 48.3914L75.7321 37.8117C76.0391 36.5827 77.2792 35.872 78.5026 36.2218C79.7345 36.574 80.469 37.8505 80.1623 39.0784L78.6268 45.2246L89.3933 38.4328C90.478 37.8125 91.8788 38.2041 92.5321 39.3249C93.1809 40.4379 92.8393 41.8363 91.7428 42.4634L80.984 49.2508L87.1133 51.0033C88.3413 51.3545 89.0869 52.631 88.7811 53.8553C88.4731 55.0881 87.2327 55.7876 86.0058 55.4368L75.4464 52.4176L64.1588 58.8724L75.5521 65.3877L85.9893 62.4034C87.2162 62.0526 88.4566 62.7522 88.7646 63.985C89.0704 65.2092 88.3248 66.4858 87.0968 66.8369L81.0898 68.5545L91.7388 75.2792C92.8235 75.8995 93.1814 77.2968 92.5281 78.4176C91.8793 79.5306 90.4858 79.9368 89.3893 79.3098L78.6777 72.5493L80.2045 78.6611C80.5112 79.8889 79.7767 81.1654 78.5448 81.5177C77.3215 81.8674 76.0814 81.1567 75.7743 79.9278L73.14 69.3825L62.022 63.0246V75.964L69.9851 83.5209C70.9101 84.3987 70.9114 85.8178 69.99 86.6923C69.0621 87.5729 67.5723 87.5647 66.6481 86.6877L62.022 82.2975V95.7537C62.022 96.9943 60.9747 98 59.6624 98C58.3592 98 57.3028 97.0078 57.3028 95.7537V82.3064L52.686 86.6877C51.761 87.5655 50.2657 87.5668 49.3442 86.6923C48.4163 85.8117 48.4249 84.3979 49.3491 83.5209L57.3028 75.9728V62.793L45.6563 69.4531L43.047 79.8981C42.7403 81.126 41.5084 81.8402 40.2766 81.488C39.0532 81.1382 38.3099 79.8604 38.6169 78.6314L40.1186 72.6199L29.4696 79.3446C28.3849 79.9649 26.9842 79.5732 26.3309 78.4524C25.6821 77.3394 26.0237 75.941 27.1202 75.314L37.8318 68.5535L31.7246 66.8072C30.4976 66.4564 29.7488 65.1881 30.0568 63.9553C30.3626 62.731 31.6041 62.0226 32.8321 62.3738L43.3695 65.3867L54.761 58.8724L43.4203 52.3872L32.8485 55.41C31.6205 55.7611 30.379 55.0527 30.0732 53.8284C29.7652 52.5956 30.514 51.3273 31.741 50.9765L37.8826 49.2204L27.1162 42.4286C26.0315 41.8083 25.6736 40.4109 26.3269 39.2901C26.9756 38.1771 28.3691 37.7709 29.4656 38.398L40.2243 45.1854L38.692 39.0515C38.385 37.8226 39.1284 36.5448 40.3517 36.195C41.5836 35.8427 42.8154 36.557 43.1222 37.7848L45.762 48.3521L57.3028 54.9518V41.9017Z" fill="white" fill-opacity="0.7"/>
</svg>
