<svg width="118" height="118" viewBox="0 0 118 118" fill="none" xmlns="http://www.w3.org/2000/svg">
<path d="M80.0298 38.0452C80.0243 38.0452 80.0132 38.0452 80.0077 38.0452C80.0132 37.9042 80.0298 37.7631 80.0298 37.622C80.0298 26.3233 71.0447 17.1636 59.9613 17.1636C48.8779 17.1636 39.8927 26.3233 39.8927 37.622C39.8927 37.6333 39.8927 37.6502 39.8927 37.6615C31.1954 38.0735 24.2642 45.3708 24.2642 54.333C24.2642 63.5661 31.6051 71.0439 40.6567 71.0439H80.0298C88.9707 71.0439 96.2175 63.6564 96.2175 54.5418C96.2175 45.4329 88.9707 38.0452 80.0298 38.0452Z" fill="#F2F2F1"/>
<path d="M84.8931 81.1691H35.4553C34.3038 81.1691 33.3682 80.2154 33.3682 79.0415C33.3682 77.8676 34.3038 76.9138 35.4553 76.9138H84.8931C86.0447 76.9138 86.9803 77.8676 86.9803 79.0415C86.9747 80.221 86.0391 81.1691 84.8931 81.1691Z" fill="#A1A5AA"/>
<path d="M106.258 81.1691H95.7556C94.604 81.1691 93.6685 80.2154 93.6685 79.0415C93.6685 77.8676 94.604 76.9138 95.7556 76.9138H106.258C107.409 76.9138 108.345 77.8676 108.345 79.0415C108.345 80.221 107.409 81.1691 106.258 81.1691Z" fill="#A1A5AA"/>
<path d="M104.195 100.836H26.8381C25.6866 100.836 24.751 99.8826 24.751 98.7087C24.751 97.5348 25.6866 96.5811 26.8381 96.5811H104.195C105.346 96.5811 106.282 97.5348 106.282 98.7087C106.282 99.8826 105.346 100.836 104.195 100.836Z" fill="#A1A5AA"/>
<path d="M70.8552 91.0053H12.8142C11.6626 91.0053 10.7271 90.0515 10.7271 88.8776C10.7271 87.7038 11.6626 86.75 12.8142 86.75H70.8552C72.0067 86.75 72.9423 87.7038 72.9423 88.8776C72.9423 90.0515 72.0067 91.0053 70.8552 91.0053Z" fill="#A1A5AA"/>
<path d="M99.7044 91.0053H82.7195C81.5679 91.0053 80.6323 90.0515 80.6323 88.8776C80.6323 87.7038 81.5679 86.75 82.7195 86.75H99.7044C100.856 86.75 101.792 87.7038 101.792 88.8776C101.792 90.0515 100.856 91.0053 99.7044 91.0053Z" fill="#A1A5AA"/>
</svg>
